<svg id="svg" xmlns="http://www.w3.org/2000/svg" xmlns:xlink="http://www.w3.org/1999/xlink" width="400" height="297.093023255814" viewBox="0, 0, 400,297.093023255814"><g id="svgg"><path id="path0" d="M89.117 1.178 C 62.032 9.018,49.146 41.975,64.066 65.250 C 65.352 67.255,68.752 71.303,71.623 74.245 L 76.843 79.595 74.726 83.257 C 67.138 96.382,62.593 107.866,59.589 121.501 C 57.890 129.214,57.949 129.133,52.184 131.639 C 18.515 146.276,-0.505 175.959,0.141 212.859 C 1.193 272.942,60.840 313.115,116.541 291.255 C 127.423 286.984,137.561 280.683,150.020 270.447 C 156.945 264.758,156.669 264.803,156.839 269.331 C 157.551 288.287,161.432 291.553,185.642 293.567 C 213.510 295.885,235.393 292.317,240.503 284.622 C 242.432 281.716,242.613 280.787,243.359 269.917 L 243.727 264.544 247.590 268.094 C 292.226 309.115,350.482 306.398,384.005 261.730 C 403.092 236.299,405.966 198.211,390.858 170.930 C 381.058 153.235,368.429 141.445,349.657 132.465 C 341.685 128.652,342.292 129.391,340.658 121.512 C 338.203 109.678,330.276 89.967,324.981 82.531 C 323.177 79.998,323.544 79.137,328.452 74.384 C 342.385 60.893,346.501 41.894,338.984 25.769 C 324.218 -5.906,282.925 -9.373,263.109 19.399 C 260.389 23.349,260.581 23.338,252.326 19.982 C 221.173 7.314,178.449 7.375,147.499 20.130 C 139.739 23.328,140.096 23.401,135.793 17.759 C 124.579 3.056,105.745 -3.635,89.117 1.178 M146.757 126.397 C 154.153 129.487,155.342 132.819,155.118 149.827 L 154.942 163.275 153.180 165.781 C 146.877 174.743,133.932 173.776,128.700 163.953 C 127.361 161.439,126.762 141.310,127.877 136.275 C 129.675 128.154,139.126 123.209,146.757 126.397 M264.177 126.292 C 267.323 127.226,271.611 131.514,272.545 134.660 C 274.044 139.708,273.494 160.922,271.774 164.373 C 266.725 174.506,252.196 174.479,246.640 164.328 C 245.134 161.577,244.818 138.186,246.236 134.472 C 248.935 127.405,256.425 123.990,264.177 126.292 M213.723 224.977 C 215.062 225.829,216.279 228.633,216.279 230.869 C 216.279 234.224,204.720 252.830,202.111 253.673 C 198.338 254.893,189.847 247.555,191.653 244.633 C 191.901 244.232,191.763 244.178,191.270 244.482 C 190.712 244.827,190.602 244.694,190.869 243.998 C 191.071 243.469,190.977 243.099,190.659 243.176 C 190.069 243.317,186.895 237.653,185.169 233.376 C 183.368 228.916,185.537 224.753,189.934 224.229 C 194.889 223.637,212.486 224.191,213.723 224.977 " stroke="none" fill="#ffffff" fill-rule="evenodd"></path></g></svg>